<svg xmlns="http://www.w3.org/2000/svg" width="206.586" height="102.102" viewBox="0 0 206.586 102.102">
  <g id="logo" transform="translate(2 2)">
    <g id="_2799201_jigsaw_processing_business_information_piece_icon" opacity="0.7">
      <path id="Path_1" d="M65.2,90.389a6.286,6.286,0,1,1,1.539,8.755A5.856,5.856,0,0,1,65.2,97.605v14.143H96.949A3.778,3.778,0,0,0,100.7,107.9V76.15H86.462A6.31,6.31,0,0,0,88.1,67.4,6.286,6.286,0,0,0,77.8,74.611a5.3,5.3,0,0,0,1.636,1.636H65.2Z" transform="translate(-29.602 -24.004)" fill="#98dad9"/>
      <path id="Path_3" d="M49.655,76.7A6.286,6.286,0,1,1,40.9,78.239,5.856,5.856,0,0,1,42.439,76.7H28.2v31.749a3.841,3.841,0,0,0,3.752,3.848H63.7V98.059A6.3,6.3,0,1,0,65.337,89.3,5.3,5.3,0,0,0,63.7,90.939V76.7Z" transform="translate(-28.2 -24.458)" fill="#e65c4f"/>
      <path id="Path_4" d="M97.2,57.709a6.286,6.286,0,1,1,8.755-1.539,7.775,7.775,0,0,1-1.539,1.539h14.047V26.345a3.9,3.9,0,0,0-3.945-3.945H83.053V36.543a6.212,6.212,0,0,0-8.659-1.636,6.3,6.3,0,0,0-1.636,8.659A6.212,6.212,0,0,0,81.417,45.2a6.6,6.6,0,0,0,1.636-1.636V57.709Z" transform="translate(-29.848 -22.4)" fill="#fdd037"/>
      <path id="Path_6" d="M63.8,61.159a6.286,6.286,0,1,1-10.294-7.216A6.321,6.321,0,0,1,62.262,52.4,5.856,5.856,0,0,1,63.8,53.943V39.8H32.052A3.757,3.757,0,0,0,28.3,43.552V75.3H42.443A6.3,6.3,0,1,0,51.2,76.937,5.3,5.3,0,0,0,49.562,75.3H63.8Z" transform="translate(-28.204 -23.059)" fill="#6bbd99"/>
      <path id="Path_7" d="M63.8,61.159a6.286,6.286,0,1,1-10.294-7.216A6.321,6.321,0,0,1,62.262,52.4,5.856,5.856,0,0,1,63.8,53.943V39.8H32.052A3.757,3.757,0,0,0,28.3,43.552V75.3H42.443A6.3,6.3,0,1,0,51.2,76.937,5.3,5.3,0,0,0,49.562,75.3H63.8Z" transform="translate(-28.204 -23.059)" fill="none" stroke="#000" stroke-linecap="round" stroke-linejoin="round" stroke-width="4"/>
      <path id="Path_8" d="M97.2,57.709a6.286,6.286,0,1,1,8.755-1.539,7.775,7.775,0,0,1-1.539,1.539h14.047V26.345a3.9,3.9,0,0,0-3.945-3.945H83.053V36.543a6.212,6.212,0,0,0-8.659-1.636,6.3,6.3,0,0,0-1.636,8.659A6.212,6.212,0,0,0,81.417,45.2a6.6,6.6,0,0,0,1.636-1.636V57.709Z" transform="translate(-29.848 -22.4)" fill="none" stroke="#000" stroke-linecap="round" stroke-linejoin="round" stroke-width="4"/>
      <path id="Path_9" d="M65.2,90.389a6.286,6.286,0,1,1,1.539,8.755A5.856,5.856,0,0,1,65.2,97.605v14.143H96.949A3.778,3.778,0,0,0,100.7,107.9V76.15H86.462A6.31,6.31,0,0,0,88.1,67.4,6.286,6.286,0,0,0,77.8,74.611a5.3,5.3,0,0,0,1.636,1.636H65.2Z" transform="translate(-29.602 -24.004)" fill="none" stroke="#000" stroke-linecap="round" stroke-linejoin="round" stroke-width="4"/>
      <path id="Path_10" d="M49.655,76.7A6.286,6.286,0,1,1,40.9,78.239,5.856,5.856,0,0,1,42.439,76.7H28.2v31.749a3.841,3.841,0,0,0,3.752,3.848H63.7V98.059A6.3,6.3,0,1,0,65.337,89.3,5.3,5.3,0,0,0,63.7,90.939V76.7Z" transform="translate(-28.2 -24.458)" fill="none" stroke="#000" stroke-linecap="round" stroke-linejoin="round" stroke-width="4"/>
    </g>
    <g id="Group_37" data-name="Group 37" transform="translate(88.586 38.102)">
      <text id="Jerry" transform="translate(0 47)" fill="#525252" font-size="46" font-family="Kristen ITC"><tspan x="0" y="0">Jerry</tspan></text>
    </g>
  </g>
</svg>
