<svg xmlns="http://www.w3.org/2000/svg" xmlns:xlink="http://www.w3.org/1999/xlink" width="840" height="348" viewBox="0 0 840 348">
  <defs>
    <filter id="Path_16519" x="0" y="0" width="840" height="348" filterUnits="userSpaceOnUse">
      <feOffset dy="16" input="SourceAlpha"/>
      <feGaussianBlur stdDeviation="8" result="blur"/>
      <feFlood flood-opacity="0.051"/>
      <feComposite operator="in" in2="blur"/>
      <feComposite in="SourceGraphic"/>
    </filter>
  </defs>
  <g id="personal_paragraph" data-name="personal paragraph" transform="translate(-298 -939)">
    <g transform="matrix(1, 0, 0, 1, 298, 939)" filter="url(#Path_16519)">
      <path id="Path_16519-2" data-name="Path 16519" d="M6,0H786a6,6,0,0,1,6,6V294a6,6,0,0,1-6,6H6a6,6,0,0,1-6-6V6A6,6,0,0,1,6,0Z" transform="translate(24 8)" fill="#fafafa"/>
    </g>
    <text id="A Tribute to Jerry" data-name="Your paragraph" transform="translate(500 1005)" fill="#161616" font-size="38.4" font-family="Montserrat-Bold, Montserrat" font-weight="700"><tspan x="83" y="37">Your paragraph</tspan></text>
    <text id="Lorem_ipsum_dolor_sit_amet_consectetur_adipiscing_elit._Etiam_eu_turpis_molestie_dictum_est_a_mattis_tellus._Sed_dignissim_metus_nec_fringilla_accumsan._Etiam_eu_turpis_molestie_dictum_est_a_mattis_tellus._" data-name="Lorem ipsum dolor sit amet, consectetur adipiscing elit. Etiam eu turpis molestie, dictum est a, mattis tellus. Sed dignissim, metus nec fringilla accumsan. Etiam eu turpis molestie, dictum est a, mattis tellus. " transform="translate(482 1062)" fill="#525252" font-size="20" font-family="Montserrat-Regular, Montserrat"><tspan x="0" y="19">Lorem ipsum dolor sit amet, consectetur adipiscing elit. </tspan><tspan x="0" y="51">Etiam eu turpis molestie, dictum est a, mattis tellus. Sed </tspan><tspan x="0" y="83">dignissim, metus nec fringilla accumsan. Etiam eu turpis </tspan><tspan x="0" y="115">molestie, dictum est a, mattis tellus. </tspan></text>
  </g>
</svg>
